#N canvas 774 155 450 300 10;
#X obj 93 59 mrpeach/packOSC;
#X obj 93 92 mrpeach/slipenc;
#X obj 93 114 iemnet/tcpclient;
#X obj 93 136 mrpeach/slipdec;
#X obj 93 158 mrpeach/unpackOSC;
#X obj 93 180 print RECV;
#X msg 256 102 disconnect;
#X msg 93 27 /foo/bar 54 hallo;
#X msg 238 71 connect localhost 8004;
#N canvas 224 160 466 359 bundle 0;
#X msg -64 -12 35 98 117 110 100 108 101 0 0 0 0 0 0 0 0 1 0 0 0 28
47 116 101 115 116 0 0 0 44 105 105 105 0 0 0 0 0 0 0 5 0 0 0 6 0 0
0 7 0 0 0 28 47 116 101 115 116 0 0 0 44 105 105 105 0 0 0 0 0 0 0
5 0 0 0 6 0 0 0 7 0 0 0 28 47 116 101 115 116 0 0 0 44 105 105 105
0 0 0 0 0 0 0 5 0 0 0 6 0 0 0 7 0 0 0 28 47 116 101 115 116 0 0 0 44
105 105 105 0 0 0 0 0 0 0 5 0 0 0 6 0 0 0 7 0 0 0 28 47 116 101 115
116 0 0 0 44 105 105 105 0 0 0 0 0 0 0 5 0 0 0 6 0 0 0 7 0 0 1 64 35
98 117 110 100 108 101 0 0 0 0 0 0 0 0 1 0 0 0 28 47 116 101 115 116
0 0 0 44 105 105 105 0 0 0 0 0 0 0 5 0 0 0 6 0 0 0 7 0 0 0 236 35 98
117 110 100 108 101 0 0 0 0 0 0 0 0 1 0 0 0 28 47 116 101 115 116 0
0 0 44 105 105 105 0 0 0 0 0 0 0 5 0 0 0 6 0 0 0 7 0 0 0 152 35 98
117 110 100 108 101 0 0 0 0 0 0 0 0 1 0 0 0 100 35 98 117 110 100 108
101 0 0 0 0 0 0 0 0 1 0 0 0 48 35 98 117 110 100 108 101 0 0 0 0 0
0 0 0 1 0 0 0 28 47 116 101 115 116 0 0 0 44 105 105 105 0 0 0 0 0
0 0 5 0 0 0 6 0 0 0 7 0 0 0 28 47 116 101 115 116 0 0 0 44 105 105
105 0 0 0 0 0 0 0 5 0 0 0 6 0 0 0 7 0 0 0 28 47 116 101 115 116 0 0
0 44 105 105 105 0 0 0 0 0 0 0 5 0 0 0 6 0 0 0 7 0 0 0 28 47 116 101
115 116 0 0 0 44 105 105 105 0 0 0 0 0 0 0 5 0 0 0 6 0 0 0 7 0 0 0
28 47 116 101 115 116 0 0 0 44 105 105 105 0 0 0 0 0 0 0 5 0 0 0 6
0 0 0 7 0 0 0 28 47 116 101 115 116 0 0 0 44 105 105 105 0 0 0 0 0
0 0 5 0 0 0 6 0 0 0 7;
#X obj -63 -37 inlet;
#X obj -64 285 outlet;
#X connect 0 0 2 0;
#X connect 1 0 0 0;
#X restore 256 33 pd bundle;
#X obj 257 9 bng 15 250 50 0 empty empty empty 17 7 0 10 -262144 -1
-1;
#X connect 0 0 1 0;
#X connect 1 0 2 0;
#X connect 2 0 3 0;
#X connect 3 0 4 0;
#X connect 4 0 5 0;
#X connect 6 0 2 0;
#X connect 7 0 0 0;
#X connect 8 0 2 0;
#X connect 9 0 1 0;
#X connect 10 0 9 0;
