#N canvas 774 109 450 300 10;
#X obj 93 70 mrpeach/packOSC;
#X obj 93 92 mrpeach/slipenc;
#X obj 93 114 iemnet/tcpclient;
#X obj 93 136 mrpeach/slipdec;
#X obj 93 158 mrpeach/unpackOSC;
#X obj 93 180 print RECV;
#X msg 238 71 connect localhost 8003;
#X msg 256 102 disconnect;
#X msg 128 29 /foo/bar 54 hallo;
#X connect 0 0 1 0;
#X connect 1 0 2 0;
#X connect 2 0 3 0;
#X connect 3 0 4 0;
#X connect 4 0 5 0;
#X connect 6 0 2 0;
#X connect 7 0 2 0;
