#N canvas 72 189 486 614 10;
#X obj 13 39 inlet;
#X obj 13 504 outlet;
#X obj 75 503 outlet;
#X obj 137 503 outlet;
#X obj 199 502 outlet;
#X obj 30 229 list trim;
#X obj 47 187 list trim;
#X obj 47 166 list prepend socket;
#X obj 30 208 list prepend num_of_clients;
#X obj 64 145 list trim;
#X obj 64 124 list prepend ip;
#N canvas 816 316 247 348 \$0.TCPSOCKETCONTAINER 0;
#X obj 10 20 tcpsocket.OSC 1004 16;
#X obj 10 40 tcpsocket.OSC 1004 17;
#X restore 14 412 pd \$0.TCPSOCKETCONTAINER;
#N canvas 491 218 502 504 socketmanager 0;
#X msg 24 196 \$1 reset;
#X obj 25 259 route done;
#X obj 5 175 t a a b;
#X msg 25 280 0;
#X msg 44 280 1;
#X obj 5 303 spigot;
#X obj 44 344 f;
#X obj 76 344 + 20;
#X obj 5 323 t a b b;
#X obj 24 365 list append \$1;
#X obj 24 388 list append;
#X obj 5 412 list append;
#X obj 5 476 s pd-\$0.TCPSOCKETCONTAINER;
#X obj 5 432 list append \$0;
#X obj 5 24 route socket num_of_clients;
#X obj 84 46 t a a;
#X obj 69 73 -;
#X obj 69 94 == 1;
#X obj 5 122 spigot;
#X obj 24 217 s \$0.TCPSOCKET;
#X obj 25 238 r \$0.TCPSOCKET;
#X msg 5 454 obj 10 \$3 tcpsocket.\$2 \$4 \$1 \, loadbang;
#X obj 5 148 t a b;
#X msg 65 132 0;
#X text 116 78 when a new client connects (num_of_clients: +1);
#X text 119 197 send a 'reset' to the according socket handler;
#X text 114 266 and if it doesn't respond (which means \, there is
no socket handler on specified socket) \,;
#X text 119 368 create one (into pd-\$0.TCPSOCKETCONTAINER).;
#X obj 5 3 inlet;
#X connect 0 0 19 0;
#X connect 1 0 3 0;
#X connect 2 0 5 0;
#X connect 2 1 0 0;
#X connect 2 2 4 0;
#X connect 3 0 5 1;
#X connect 4 0 5 1;
#X connect 5 0 8 0;
#X connect 6 0 7 0;
#X connect 6 0 10 1;
#X connect 7 0 6 1;
#X connect 8 0 11 0;
#X connect 8 1 9 0;
#X connect 8 2 6 0;
#X connect 9 0 10 0;
#X connect 10 0 11 1;
#X connect 11 0 13 0;
#X connect 13 0 21 0;
#X connect 14 0 18 0;
#X connect 14 1 15 0;
#X connect 15 0 16 1;
#X connect 15 1 16 0;
#X connect 16 0 17 0;
#X connect 17 0 18 1;
#X connect 18 0 22 0;
#X connect 20 0 1 0;
#X connect 21 0 12 0;
#X connect 22 0 2 0;
#X connect 22 1 23 0;
#X connect 23 0 18 1;
#X connect 28 0 14 0;
#X restore 109 341 pd socketmanager;
#X obj 13 60 tcpserver \$2;
#X obj 13 457 r \$0.TCPSOCKET;
#X obj 13 250 list prepend in;
#X obj 13 272 list trim;
#X text 23 541 Author: Roman Haefeli;
#X text 94 292 [tcpsocketserver <protocol> <port>];
#X obj 258 504 outlet;
#X obj 82 104 list trim;
#X obj 82 83 list prepend status;
#X obj 13 480 route out num_of_clients socket ip status;
#X obj 82 366 s \$0.TCPSOCKET;
#X obj 82 316 t a a;
#X text 24 558 Version: 2018-07-23;
#X connect 0 0 13 0;
#X connect 5 0 24 0;
#X connect 6 0 24 0;
#X connect 7 0 6 0;
#X connect 8 0 5 0;
#X connect 9 0 24 0;
#X connect 10 0 9 0;
#X connect 13 0 15 0;
#X connect 13 1 8 0;
#X connect 13 2 7 0;
#X connect 13 3 10 0;
#X connect 13 4 21 0;
#X connect 14 0 22 0;
#X connect 15 0 16 0;
#X connect 16 0 24 0;
#X connect 20 0 24 0;
#X connect 21 0 20 0;
#X connect 22 0 1 0;
#X connect 22 1 2 0;
#X connect 22 2 3 0;
#X connect 22 3 4 0;
#X connect 22 4 19 0;
#X connect 24 0 23 0;
#X connect 24 1 12 0;
