#N canvas 636 71 454 505 10;
#X obj 53 49 == \$2;
#X obj 10 28 route in socket;
#X obj 10 76 spigot;
#N canvas 622 183 512 335 reset 0;
#X obj 23 41 route \$2;
#X obj 23 63 route reset;
#X obj 23 83 t b b;
#X msg 55 170 done;
#X obj 23 113 outlet;
#X text 161 33 this is used to:;
#X text 87 114 a) reset the sockethandler on a new connection;
#X text 88 129 (for instance \, if the previous connection was quitted
in the middle of a packet).;
#X text 55 213 b) check for the socketserver \, if a sockethandler
on specified socket already exists.;
#X obj 55 191 s \$1.TCPSOCKET;
#X obj 23 19 r \$1.TCPSOCKET;
#X connect 0 0 1 0;
#X connect 1 0 2 0;
#X connect 2 0 4 0;
#X connect 2 1 3 0;
#X connect 3 0 9 0;
#X connect 10 0 0 0;
#X restore 43 102 pd reset;
#X obj 107 280 route socket ip;
#X obj 44 367 list append;
#X obj 61 323 list append;
#X obj 10 299 t a b b b;
#X obj 10 414 list prepend out;
#X obj 44 391 list prepend socket.out;
#X obj 61 345 list prepend ip.out;
#X obj 10 442 list trim;
#X text 19 220 the lower part makes [tcpsocketserver] behave like [tcpserver]
;
#X obj 1 136 cnv 15 450 70 empty empty empty 20 12 0 14 -204786 -66577
0;
#X text 73 162 <- PUT HERE THE PROTOCOL SPECIFIC DELIMITER CODE;
#X text 18 197 --------------------------------------------------------
;
#X text 16 129 --------------------------------------------------------
;
#X obj 10 6 r \$1.TCPSOCKET;
#X obj 10 465 s \$1.TCPSOCKET;
#X obj 107 256 r \$1.TCPSOCKET;
#X text 203 454 Author: Roman Haefeli;
#X text 58 75 <- only pass stream of own socket;
#N canvas 389 172 279 303 OSC 0;
#X obj 17 48 inlet;
#X obj 17 216 outlet;
#X obj 134 53 inlet;
#X text 184 53 reset;
#X obj 17 181 spigot 1;
#X obj 134 75 t b b b;
#X msg 153 97 192 192;
#X msg 173 129 0;
#X msg 134 130 1;
#X obj 17 153 slipdec 16384;
#X connect 0 0 9 0;
#X connect 2 0 5 0;
#X connect 4 0 1 0;
#X connect 5 0 8 0;
#X connect 5 1 6 0;
#X connect 5 2 7 0;
#X connect 6 0 9 0;
#X connect 7 0 4 1;
#X connect 8 0 4 1;
#X connect 9 0 4 0;
#X restore 10 161 pd OSC;
#X text 204 474 Version: 2011-01-05;
#X connect 0 0 2 1;
#X connect 1 0 2 0;
#X connect 1 1 0 0;
#X connect 2 0 22 0;
#X connect 3 0 22 1;
#X connect 4 0 5 1;
#X connect 4 1 6 1;
#X connect 5 0 9 0;
#X connect 6 0 10 0;
#X connect 7 0 8 0;
#X connect 7 2 5 0;
#X connect 7 3 6 0;
#X connect 8 0 11 0;
#X connect 9 0 11 0;
#X connect 10 0 11 0;
#X connect 11 0 18 0;
#X connect 17 0 1 0;
#X connect 19 0 4 0;
#X connect 22 0 7 0;
